<svg width="390" height="460" viewBox="0 0 390 460" fill="none" xmlns="http://www.w3.org/2000/svg">
    <g clip-path="url(#clip0_69_1267)">
        <g clip-path="url(#clip1_69_1267)">
            <mask id="path-1-inside-1_69_1267" fill="white">
                <path
                    d="M27 108.947C27 93.5124 39.5125 81 54.9473 81H989.535C1004.97 81 1017.48 93.5125 1017.48 108.947V555.176H27V108.947Z" />
            </mask>
            <path
                d="M27 108.947C27 93.5124 39.5125 81 54.9473 81H989.535C1004.97 81 1017.48 93.5125 1017.48 108.947V555.176H27V108.947Z"
                fill="url(#paint0_linear_69_1267)" />
            <path
                d="M154.622 127.831C151.209 127.831 148.91 125.648 148.91 122.931H151.719C151.743 124.185 152.927 125.323 154.692 125.323C156.317 125.323 157.362 124.325 157.362 123.071C157.362 121.956 156.41 121.306 155.063 120.935L153.066 120.377C149.63 119.495 149.026 117.428 149.026 116.035C149.026 113.202 151.51 111.275 154.459 111.275C157.385 111.275 159.684 113.086 159.684 116.082H156.874C156.874 114.758 155.876 113.806 154.39 113.806C153.02 113.806 151.882 114.735 151.882 115.989C151.882 116.43 152.021 117.359 153.856 117.846L155.76 118.404C158.268 119.1 160.195 120.4 160.195 122.955C160.195 125.88 157.757 127.831 154.622 127.831Z"
                fill="white" />
            <path
                d="M165.567 116.708H167.866V118.845H165.567V127.552H162.873V118.845H160.923V116.708H162.873V112.715H165.567V116.708Z"
                fill="white" />
            <path
                d="M175.034 116.43C175.684 116.43 176.381 116.569 176.799 116.801L176.265 119.356C175.638 119.03 175.08 118.961 174.686 118.961C172.921 118.961 171.946 120.726 171.946 123.767V127.552H169.229V116.708H171.922V119.03C172.503 117.219 173.687 116.43 175.034 116.43Z"
                fill="white" />
            <path
                d="M185.467 122.514V116.708H188.161V127.552H185.467V125.857C184.91 127.227 183.192 127.831 182.1 127.831C179.314 127.831 177.758 125.95 177.758 122.792V116.708H180.452V122.676C180.452 124.418 181.497 125.323 182.704 125.323C183.935 125.323 185.467 124.627 185.467 122.514Z"
                fill="white" />
            <path
                d="M195.872 127.831C192.737 127.831 189.974 125.555 189.974 122.119C189.974 118.682 192.737 116.43 195.872 116.43C197.753 116.43 199.285 117.266 200.284 118.52L198.38 120.029C197.822 119.356 196.893 118.938 195.918 118.938C194.037 118.938 192.691 120.284 192.691 122.119C192.691 123.93 194.037 125.323 195.918 125.323C196.893 125.323 197.822 124.905 198.38 124.232L200.284 125.741C199.285 126.995 197.753 127.831 195.872 127.831Z"
                fill="white" />
            <path
                d="M205.57 116.708H207.869V118.845H205.57V127.552H202.877V118.845H200.926V116.708H202.877V112.715H205.57V116.708Z"
                fill="white" />
            <path
                d="M215.293 116.43C218.334 116.43 220.796 118.821 220.796 122.119C220.796 125.416 218.334 127.831 215.293 127.831C213.481 127.831 211.763 126.902 210.974 125.416V127.552H209.487V110.811H210.974V118.821C211.786 117.335 213.458 116.43 215.293 116.43ZM215.176 126.414C217.475 126.414 219.333 124.51 219.333 122.096C219.333 119.704 217.475 117.846 215.176 117.846C213.017 117.846 210.974 119.541 210.974 122.165C210.974 124.673 212.924 126.414 215.176 126.414Z"
                fill="white" />
            <path
                d="M227.999 127.831C224.911 127.831 222.334 125.555 222.334 122.119C222.334 118.682 224.911 116.43 227.999 116.43C231.088 116.43 233.688 118.682 233.688 122.119C233.688 125.555 231.088 127.831 227.999 127.831ZM227.999 126.414C230.275 126.414 232.202 124.673 232.202 122.119C232.202 119.565 230.275 117.846 227.999 117.846C225.701 117.846 223.82 119.565 223.82 122.119C223.82 124.673 225.701 126.414 227.999 126.414Z"
                fill="white" />
            <path
                d="M240.863 127.831C237.775 127.831 235.197 125.555 235.197 122.119C235.197 118.682 237.775 116.43 240.863 116.43C243.951 116.43 246.552 118.682 246.552 122.119C246.552 125.555 243.951 127.831 240.863 127.831ZM240.863 126.414C243.139 126.414 245.066 124.673 245.066 122.119C245.066 119.565 243.139 117.846 240.863 117.846C238.564 117.846 236.683 119.565 236.683 122.119C236.683 124.673 238.564 126.414 240.863 126.414Z"
                fill="white" />
            <path
                d="M251.869 127.831C249.988 127.831 248.107 126.74 247.922 124.673H249.292C249.454 125.579 250.29 126.507 251.869 126.507C253.425 126.507 254.377 125.695 254.377 124.603C254.377 123.721 253.773 123.14 252.659 122.862L251.103 122.49C249.57 122.119 248.34 121.329 248.34 119.518C248.34 117.753 249.849 116.43 251.916 116.43C253.727 116.43 255.399 117.428 255.468 119.379H254.029C253.959 118.404 253.007 117.753 251.939 117.753C250.685 117.753 249.826 118.52 249.826 119.541C249.826 120.563 250.708 121.004 251.498 121.19L253.1 121.585C255.213 122.096 255.863 123.373 255.863 124.627C255.863 126.554 254.121 127.831 251.869 127.831Z"
                fill="white" />
            <path
                d="M260.268 116.708H262.753V117.986H260.268V127.552H258.805V117.986H256.831V116.708H258.805V112.645H260.268V116.708Z"
                fill="white" />
            <path
                d="M139.059 111.946H129.102C128.696 111.946 128.609 111.975 128.377 112.209L120.482 119.584C120.25 119.818 120.221 119.906 120.221 120.316V124.648C120.221 127.105 121.44 128.335 123.878 128.335H133.835C134.241 128.335 134.328 128.305 134.56 128.071L142.455 120.696C142.687 120.462 142.716 120.374 142.716 119.965V115.634C142.716 113.175 141.497 111.946 139.059 111.946Z"
                fill="#F67ACB" />
            <rect x="367.026" y="118.263" width="44.7158" height="1.86316" fill="white" />
            <rect x="120.221" y="210.076" width="307.453" height="1.79273" fill="white" />
            <rect x="120.221" y="247.724" width="253.671" height="1.79273" fill="white" />
            <rect x="120.221" y="285.371" width="170.309" height="1.79273" fill="white" />
            <rect x="120.687" y="323.484" width="193.768" height="40.9894" stroke="#F67ACB"
                stroke-width="0.931578" />
            <path
                d="M141.756 347.479V339.318H142.852V347.479H141.756ZM142.628 343.846V342.862L146.127 342.851V343.834L142.628 343.846ZM142.628 340.302V339.318H146.317V340.302H142.628ZM150.934 347.479V345.69H150.755V343.622C150.755 343.212 150.647 342.903 150.431 342.694C150.222 342.485 149.913 342.381 149.503 342.381C149.272 342.381 149.034 342.385 148.788 342.392C148.542 342.4 148.307 342.407 148.083 342.415C147.86 342.422 147.666 342.433 147.502 342.448V341.509C147.666 341.494 147.838 341.483 148.016 341.476C148.203 341.461 148.393 341.453 148.587 341.453C148.78 341.446 148.967 341.442 149.145 341.442C149.757 341.442 150.256 341.517 150.643 341.666C151.031 341.807 151.318 342.042 151.504 342.37C151.691 342.698 151.784 343.141 151.784 343.7V347.479H150.934ZM148.978 347.635C148.531 347.635 148.143 347.561 147.815 347.412C147.495 347.255 147.245 347.032 147.066 346.741C146.895 346.45 146.809 346.1 146.809 345.69C146.809 345.265 146.902 344.911 147.089 344.628C147.282 344.345 147.562 344.133 147.927 343.991C148.292 343.842 148.732 343.767 149.246 343.767H150.867V344.572H149.201C148.769 344.572 148.437 344.677 148.206 344.885C147.975 345.094 147.86 345.362 147.86 345.69C147.86 346.018 147.975 346.283 148.206 346.484C148.437 346.685 148.769 346.786 149.201 346.786C149.455 346.786 149.697 346.741 149.928 346.651C150.159 346.555 150.349 346.398 150.498 346.182C150.655 345.958 150.74 345.653 150.755 345.265L151.046 345.69C151.009 346.115 150.904 346.473 150.733 346.763C150.569 347.046 150.338 347.263 150.04 347.412C149.749 347.561 149.395 347.635 148.978 347.635ZM153.038 347.479V346.283L156.291 342.381V342.56L156.112 342.292L156.257 342.359H152.993V341.509H157.241V342.705L153.988 346.607V346.45L154.189 346.73L154.033 346.629H157.42V347.479H153.038ZM161.024 347.68C160.502 347.68 160.052 347.591 159.671 347.412C159.291 347.233 158.982 346.998 158.744 346.707C158.505 346.409 158.326 346.078 158.207 345.712C158.095 345.347 158.039 344.975 158.039 344.595V344.393C158.039 344.006 158.095 343.629 158.207 343.264C158.326 342.899 158.505 342.571 158.744 342.281C158.982 341.982 159.284 341.748 159.649 341.576C160.022 341.397 160.458 341.308 160.957 341.308C161.605 341.308 162.138 341.45 162.556 341.733C162.98 342.009 163.293 342.366 163.495 342.806C163.703 343.246 163.808 343.715 163.808 344.214V344.695H158.509V343.89H163.025L162.779 344.326C162.779 343.901 162.712 343.536 162.578 343.231C162.444 342.918 162.243 342.676 161.974 342.504C161.706 342.333 161.367 342.247 160.957 342.247C160.532 342.247 160.178 342.344 159.895 342.538C159.619 342.731 159.411 342.996 159.269 343.331C159.135 343.667 159.068 344.054 159.068 344.494C159.068 344.919 159.135 345.303 159.269 345.645C159.411 345.981 159.627 346.249 159.917 346.45C160.208 346.644 160.577 346.741 161.024 346.741C161.494 346.741 161.874 346.637 162.164 346.428C162.462 346.219 162.641 345.977 162.701 345.701H163.707C163.625 346.111 163.461 346.465 163.215 346.763C162.969 347.061 162.66 347.289 162.287 347.445C161.915 347.602 161.494 347.68 161.024 347.68ZM164.996 347.479V341.509H165.846V343.969H165.801C165.801 343.097 165.991 342.459 166.371 342.057C166.759 341.647 167.336 341.442 168.104 341.442H168.305V342.403H167.925C167.329 342.403 166.87 342.564 166.55 342.884C166.229 343.197 166.069 343.652 166.069 344.248V347.479H164.996ZM171.454 349.715V341.509H172.304V344.092L172.102 344.069C172.14 343.428 172.274 342.907 172.505 342.504C172.743 342.094 173.053 341.792 173.433 341.599C173.813 341.405 174.226 341.308 174.674 341.308C175.106 341.308 175.497 341.39 175.847 341.554C176.205 341.718 176.511 341.941 176.764 342.225C177.017 342.508 177.211 342.836 177.345 343.208C177.48 343.581 177.547 343.976 177.547 344.393V344.595C177.547 345.012 177.476 345.407 177.334 345.78C177.193 346.152 176.991 346.48 176.731 346.763C176.477 347.046 176.172 347.27 175.814 347.434C175.464 347.598 175.076 347.68 174.651 347.68C174.226 347.68 173.82 347.587 173.433 347.4C173.045 347.214 172.725 346.912 172.471 346.495C172.218 346.078 172.073 345.53 172.035 344.852L172.527 345.746V349.715H171.454ZM174.484 346.741C174.886 346.741 175.236 346.648 175.534 346.461C175.832 346.268 176.064 346.003 176.227 345.668C176.391 345.325 176.473 344.934 176.473 344.494C176.473 344.047 176.391 343.656 176.227 343.32C176.064 342.985 175.832 342.724 175.534 342.538C175.236 342.344 174.886 342.247 174.484 342.247C174.126 342.247 173.794 342.329 173.489 342.493C173.183 342.649 172.937 342.88 172.751 343.186C172.572 343.484 172.483 343.846 172.483 344.27V344.785C172.483 345.194 172.576 345.545 172.762 345.835C172.948 346.126 173.194 346.35 173.5 346.506C173.805 346.663 174.133 346.741 174.484 346.741ZM182.437 347.479V345.69H182.258V343.622C182.258 343.212 182.15 342.903 181.934 342.694C181.725 342.485 181.416 342.381 181.006 342.381C180.775 342.381 180.536 342.385 180.29 342.392C180.045 342.4 179.81 342.407 179.586 342.415C179.363 342.422 179.169 342.433 179.005 342.448V341.509C179.169 341.494 179.34 341.483 179.519 341.476C179.705 341.461 179.896 341.453 180.089 341.453C180.283 341.446 180.469 341.442 180.648 341.442C181.259 341.442 181.759 341.517 182.146 341.666C182.534 341.807 182.821 342.042 183.007 342.37C183.193 342.698 183.286 343.141 183.286 343.7V347.479H182.437ZM180.481 347.635C180.033 347.635 179.646 347.561 179.318 347.412C178.997 347.255 178.748 347.032 178.569 346.741C178.398 346.45 178.312 346.1 178.312 345.69C178.312 345.265 178.405 344.911 178.591 344.628C178.785 344.345 179.065 344.133 179.43 343.991C179.795 343.842 180.235 343.767 180.749 343.767H182.37V344.572H180.704C180.272 344.572 179.94 344.677 179.709 344.885C179.478 345.094 179.363 345.362 179.363 345.69C179.363 346.018 179.478 346.283 179.709 346.484C179.94 346.685 180.272 346.786 180.704 346.786C180.958 346.786 181.2 346.741 181.431 346.651C181.662 346.555 181.852 346.398 182.001 346.182C182.157 345.958 182.243 345.653 182.258 345.265L182.549 345.69C182.511 346.115 182.407 346.473 182.236 346.763C182.072 347.046 181.841 347.263 181.543 347.412C181.252 347.561 180.898 347.635 180.481 347.635ZM184.921 347.479V341.509H185.77V343.969H185.726C185.726 343.097 185.916 342.459 186.296 342.057C186.683 341.647 187.261 341.442 188.029 341.442H188.23V342.403H187.85C187.253 342.403 186.795 342.564 186.475 342.884C186.154 343.197 185.994 343.652 185.994 344.248V347.479H184.921ZM191.605 347.546C191.158 347.546 190.77 347.482 190.442 347.356C190.122 347.229 189.872 347.013 189.693 346.707C189.522 346.394 189.436 345.973 189.436 345.444V339.698H190.465V345.578C190.465 345.899 190.55 346.148 190.722 346.327C190.901 346.499 191.15 346.584 191.471 346.584H192.522V347.546H191.605ZM188.408 342.314V341.509H192.522V342.314H188.408ZM196.198 347.68C195.676 347.68 195.225 347.591 194.845 347.412C194.465 347.233 194.156 346.998 193.918 346.707C193.679 346.409 193.5 346.078 193.381 345.712C193.269 345.347 193.213 344.975 193.213 344.595V344.393C193.213 344.006 193.269 343.629 193.381 343.264C193.5 342.899 193.679 342.571 193.918 342.281C194.156 341.982 194.458 341.748 194.823 341.576C195.196 341.397 195.632 341.308 196.131 341.308C196.779 341.308 197.312 341.45 197.73 341.733C198.154 342.009 198.467 342.366 198.669 342.806C198.877 343.246 198.982 343.715 198.982 344.214V344.695H193.683V343.89H198.199L197.953 344.326C197.953 343.901 197.886 343.536 197.752 343.231C197.618 342.918 197.417 342.676 197.148 342.504C196.88 342.333 196.541 342.247 196.131 342.247C195.706 342.247 195.352 342.344 195.069 342.538C194.793 342.731 194.585 342.996 194.443 343.331C194.309 343.667 194.242 344.054 194.242 344.494C194.242 344.919 194.309 345.303 194.443 345.645C194.585 345.981 194.801 346.249 195.091 346.45C195.382 346.644 195.751 346.741 196.198 346.741C196.668 346.741 197.048 346.637 197.338 346.428C197.636 346.219 197.815 345.977 197.875 345.701H198.881C198.799 346.111 198.635 346.465 198.389 346.763C198.143 347.061 197.834 347.289 197.461 347.445C197.089 347.602 196.668 347.68 196.198 347.68ZM204.871 347.68C204.446 347.68 204.055 347.602 203.697 347.445C203.34 347.289 203.027 347.069 202.758 346.786C202.497 346.502 202.293 346.175 202.143 345.802C202.002 345.429 201.931 345.027 201.931 344.595V344.393C201.931 343.969 202.002 343.57 202.143 343.197C202.285 342.825 202.483 342.497 202.736 342.213C202.997 341.93 203.302 341.71 203.653 341.554C204.01 341.39 204.405 341.308 204.838 341.308C205.292 341.308 205.706 341.405 206.078 341.599C206.451 341.785 206.757 342.079 206.995 342.482C207.234 342.884 207.368 343.406 207.398 344.047L206.95 343.331V339.318H208.024V347.479H207.174V344.829H207.487C207.457 345.508 207.316 346.059 207.062 346.484C206.809 346.901 206.488 347.207 206.101 347.4C205.721 347.587 205.311 347.68 204.871 347.68ZM205.016 346.741C205.382 346.741 205.713 346.659 206.011 346.495C206.31 346.331 206.548 346.096 206.727 345.791C206.906 345.478 206.995 345.113 206.995 344.695V344.181C206.995 343.771 206.902 343.425 206.716 343.141C206.537 342.851 206.295 342.631 205.989 342.482C205.691 342.325 205.363 342.247 205.005 342.247C204.61 342.247 204.26 342.34 203.954 342.526C203.656 342.713 203.422 342.974 203.25 343.309C203.086 343.644 203.004 344.039 203.004 344.494C203.004 344.949 203.09 345.347 203.261 345.69C203.433 346.025 203.671 346.286 203.977 346.473C204.282 346.651 204.629 346.741 205.016 346.741ZM213.361 347.479V345.69H213.182V343.622C213.182 343.212 213.074 342.903 212.858 342.694C212.649 342.485 212.34 342.381 211.93 342.381C211.699 342.381 211.461 342.385 211.215 342.392C210.969 342.4 210.734 342.407 210.51 342.415C210.287 342.422 210.093 342.433 209.929 342.448V341.509C210.093 341.494 210.264 341.483 210.443 341.476C210.63 341.461 210.82 341.453 211.013 341.453C211.207 341.446 211.394 341.442 211.572 341.442C212.184 341.442 212.683 341.517 213.07 341.666C213.458 341.807 213.745 342.042 213.931 342.37C214.117 342.698 214.211 343.141 214.211 343.7V347.479H213.361ZM211.405 347.635C210.958 347.635 210.57 347.561 210.242 347.412C209.922 347.255 209.672 347.032 209.493 346.741C209.322 346.45 209.236 346.1 209.236 345.69C209.236 345.265 209.329 344.911 209.515 344.628C209.709 344.345 209.989 344.133 210.354 343.991C210.719 343.842 211.159 343.767 211.673 343.767H213.294V344.572H211.628C211.196 344.572 210.864 344.677 210.633 344.885C210.402 345.094 210.287 345.362 210.287 345.69C210.287 346.018 210.402 346.283 210.633 346.484C210.864 346.685 211.196 346.786 211.628 346.786C211.882 346.786 212.124 346.741 212.355 346.651C212.586 346.555 212.776 346.398 212.925 346.182C213.082 345.958 213.167 345.653 213.182 345.265L213.473 345.69C213.436 346.115 213.331 346.473 213.16 346.763C212.996 347.046 212.765 347.263 212.467 347.412C212.176 347.561 211.822 347.635 211.405 347.635ZM218.12 347.479V339.318H219.193V347.479H218.12ZM217.293 340.168V339.318H219.193V340.168H217.293ZM221.207 347.479V341.509H222.28V347.479H221.207ZM220.29 342.359V341.509H222.28V342.359H220.29ZM221.509 340.548C221.271 340.548 221.092 340.484 220.972 340.358C220.861 340.231 220.805 340.071 220.805 339.877C220.805 339.683 220.861 339.523 220.972 339.396C221.092 339.27 221.271 339.206 221.509 339.206C221.747 339.206 221.923 339.27 222.034 339.396C222.154 339.523 222.213 339.683 222.213 339.877C222.213 340.071 222.154 340.231 222.034 340.358C221.923 340.484 221.747 340.548 221.509 340.548ZM225.976 347.658C225.194 347.658 224.586 347.49 224.154 347.155C223.729 346.819 223.509 346.361 223.495 345.78H224.501C224.516 346.011 224.631 346.23 224.847 346.439C225.071 346.64 225.447 346.741 225.976 346.741C226.453 346.741 226.818 346.648 227.072 346.461C227.325 346.268 227.452 346.033 227.452 345.757C227.452 345.511 227.359 345.321 227.172 345.187C226.986 345.045 226.684 344.952 226.267 344.908L225.619 344.84C225.052 344.781 224.59 344.613 224.232 344.337C223.875 344.054 223.696 343.659 223.696 343.152C223.696 342.772 223.793 342.448 223.986 342.18C224.18 341.904 224.448 341.695 224.791 341.554C225.134 341.405 225.529 341.33 225.976 341.33C226.647 341.33 227.191 341.479 227.608 341.777C228.026 342.076 228.242 342.519 228.257 343.108H227.251C227.243 342.869 227.131 342.668 226.915 342.504C226.707 342.333 226.394 342.247 225.976 342.247C225.559 342.247 225.242 342.333 225.026 342.504C224.81 342.676 224.702 342.892 224.702 343.152C224.702 343.376 224.776 343.555 224.925 343.689C225.082 343.823 225.335 343.909 225.686 343.946L226.334 344.013C226.975 344.08 227.489 344.259 227.877 344.55C228.264 344.833 228.458 345.235 228.458 345.757C228.458 346.13 228.35 346.461 228.134 346.752C227.925 347.035 227.634 347.259 227.262 347.423C226.889 347.579 226.461 347.658 225.976 347.658ZM232.003 347.546C231.556 347.546 231.169 347.482 230.841 347.356C230.52 347.229 230.27 347.013 230.092 346.707C229.92 346.394 229.835 345.973 229.835 345.444V339.698H230.863V345.578C230.863 345.899 230.949 346.148 231.12 346.327C231.299 346.499 231.549 346.584 231.869 346.584H232.92V347.546H232.003ZM228.806 342.314V341.509H232.92V342.314H228.806ZM237.691 347.479V345.69H237.513V343.622C237.513 343.212 237.404 342.903 237.188 342.694C236.98 342.485 236.67 342.381 236.26 342.381C236.029 342.381 235.791 342.385 235.545 342.392C235.299 342.4 235.064 342.407 234.841 342.415C234.617 342.422 234.423 342.433 234.259 342.448V341.509C234.423 341.494 234.595 341.483 234.774 341.476C234.96 341.461 235.15 341.453 235.344 341.453C235.538 341.446 235.724 341.442 235.903 341.442C236.514 341.442 237.013 341.517 237.401 341.666C237.788 341.807 238.075 342.042 238.262 342.37C238.448 342.698 238.541 343.141 238.541 343.7V347.479H237.691ZM235.735 347.635C235.288 347.635 234.9 347.561 234.572 347.412C234.252 347.255 234.002 347.032 233.823 346.741C233.652 346.45 233.566 346.1 233.566 345.69C233.566 345.265 233.66 344.911 233.846 344.628C234.04 344.345 234.319 344.133 234.684 343.991C235.049 343.842 235.489 343.767 236.003 343.767H237.624V344.572H235.959C235.526 344.572 235.195 344.677 234.964 344.885C234.733 345.094 234.617 345.362 234.617 345.69C234.617 346.018 234.733 346.283 234.964 346.484C235.195 346.685 235.526 346.786 235.959 346.786C236.212 346.786 236.454 346.741 236.685 346.651C236.916 346.555 237.106 346.398 237.255 346.182C237.412 345.958 237.498 345.653 237.513 345.265L237.803 345.69C237.766 346.115 237.662 346.473 237.49 346.763C237.326 347.046 237.095 347.263 236.797 347.412C236.506 347.561 236.152 347.635 235.735 347.635ZM244.876 347.68C244.452 347.68 244.06 347.602 243.703 347.445C243.345 347.289 243.032 347.069 242.764 346.786C242.503 346.502 242.298 346.175 242.149 345.802C242.007 345.429 241.936 345.027 241.936 344.595V344.393C241.936 343.969 242.007 343.57 242.149 343.197C242.29 342.825 242.488 342.497 242.741 342.213C243.002 341.93 243.308 341.71 243.658 341.554C244.016 341.39 244.411 341.308 244.843 341.308C245.298 341.308 245.711 341.405 246.084 341.599C246.456 341.785 246.762 342.079 247 342.482C247.239 342.884 247.373 343.406 247.403 344.047L246.956 343.331V339.318H248.029V347.479H247.179V344.829H247.492C247.463 345.508 247.321 346.059 247.068 346.484C246.814 346.901 246.494 347.207 246.106 347.4C245.726 347.587 245.316 347.68 244.876 347.68ZM245.022 346.741C245.387 346.741 245.719 346.659 246.017 346.495C246.315 346.331 246.553 346.096 246.732 345.791C246.911 345.478 247 345.113 247 344.695V344.181C247 343.771 246.907 343.425 246.721 343.141C246.542 342.851 246.3 342.631 245.994 342.482C245.696 342.325 245.368 342.247 245.011 342.247C244.616 342.247 244.265 342.34 243.96 342.526C243.662 342.713 243.427 342.974 243.256 343.309C243.092 343.644 243.01 344.039 243.01 344.494C243.01 344.949 243.095 345.347 243.267 345.69C243.438 346.025 243.677 346.286 243.982 346.473C244.288 346.651 244.634 346.741 245.022 346.741ZM252.293 347.68C251.771 347.68 251.321 347.591 250.941 347.412C250.56 347.233 250.251 346.998 250.013 346.707C249.774 346.409 249.595 346.078 249.476 345.712C249.364 345.347 249.308 344.975 249.308 344.595V344.393C249.308 344.006 249.364 343.629 249.476 343.264C249.595 342.899 249.774 342.571 250.013 342.281C250.251 341.982 250.553 341.748 250.918 341.576C251.291 341.397 251.727 341.308 252.226 341.308C252.874 341.308 253.407 341.45 253.825 341.733C254.249 342.009 254.562 342.366 254.764 342.806C254.972 343.246 255.077 343.715 255.077 344.214V344.695H249.778V343.89H254.294L254.048 344.326C254.048 343.901 253.981 343.536 253.847 343.231C253.713 342.918 253.512 342.676 253.243 342.504C252.975 342.333 252.636 342.247 252.226 342.247C251.801 342.247 251.447 342.344 251.164 342.538C250.888 342.731 250.68 342.996 250.538 343.331C250.404 343.667 250.337 344.054 250.337 344.494C250.337 344.919 250.404 345.303 250.538 345.645C250.68 345.981 250.896 346.249 251.186 346.45C251.477 346.644 251.846 346.741 252.293 346.741C252.763 346.741 253.143 346.637 253.433 346.428C253.732 346.219 253.91 345.977 253.97 345.701H254.976C254.894 346.111 254.73 346.465 254.484 346.763C254.238 347.061 253.929 347.289 253.556 347.445C253.184 347.602 252.763 347.68 252.293 347.68ZM261.011 347.68C260.489 347.68 260.038 347.591 259.658 347.412C259.278 347.233 258.969 346.998 258.73 346.707C258.492 346.409 258.313 346.078 258.194 345.712C258.082 345.347 258.026 344.975 258.026 344.595V344.393C258.026 344.006 258.082 343.629 258.194 343.264C258.313 342.899 258.492 342.571 258.73 342.281C258.969 341.982 259.271 341.748 259.636 341.576C260.009 341.397 260.445 341.308 260.944 341.308C261.592 341.308 262.125 341.45 262.543 341.733C262.967 342.009 263.28 342.366 263.482 342.806C263.69 343.246 263.795 343.715 263.795 344.214V344.695H258.496V343.89H263.012L262.766 344.326C262.766 343.901 262.699 343.536 262.565 343.231C262.431 342.918 262.23 342.676 261.961 342.504C261.693 342.333 261.354 342.247 260.944 342.247C260.519 342.247 260.165 342.344 259.882 342.538C259.606 342.731 259.398 342.996 259.256 343.331C259.122 343.667 259.055 344.054 259.055 344.494C259.055 344.919 259.122 345.303 259.256 345.645C259.398 345.981 259.614 346.249 259.904 346.45C260.195 346.644 260.564 346.741 261.011 346.741C261.481 346.741 261.861 346.637 262.151 346.428C262.449 346.219 262.628 345.977 262.688 345.701H263.694C263.612 346.111 263.448 346.465 263.202 346.763C262.956 347.061 262.647 347.289 262.274 347.445C261.902 347.602 261.481 347.68 261.011 347.68ZM266.939 347.658C266.157 347.658 265.549 347.49 265.117 347.155C264.692 346.819 264.472 346.361 264.458 345.78H265.464C265.479 346.011 265.594 346.23 265.81 346.439C266.034 346.64 266.41 346.741 266.939 346.741C267.416 346.741 267.781 346.648 268.035 346.461C268.288 346.268 268.415 346.033 268.415 345.757C268.415 345.511 268.322 345.321 268.135 345.187C267.949 345.045 267.647 344.952 267.23 344.908L266.582 344.84C266.015 344.781 265.553 344.613 265.195 344.337C264.838 344.054 264.659 343.659 264.659 343.152C264.659 342.772 264.756 342.448 264.949 342.18C265.143 341.904 265.411 341.695 265.754 341.554C266.097 341.405 266.492 341.33 266.939 341.33C267.61 341.33 268.154 341.479 268.571 341.777C268.989 342.076 269.205 342.519 269.22 343.108H268.214C268.206 342.869 268.094 342.668 267.878 342.504C267.67 342.333 267.357 342.247 266.939 342.247C266.522 342.247 266.205 342.333 265.989 342.504C265.773 342.676 265.665 342.892 265.665 343.152C265.665 343.376 265.739 343.555 265.888 343.689C266.045 343.823 266.298 343.909 266.649 343.946L267.297 344.013C267.938 344.08 268.452 344.259 268.84 344.55C269.227 344.833 269.421 345.235 269.421 345.757C269.421 346.13 269.313 346.461 269.097 346.752C268.888 347.035 268.597 347.259 268.225 347.423C267.852 347.579 267.424 347.658 266.939 347.658ZM270.641 349.715V341.509H271.491V344.092L271.289 344.069C271.327 343.428 271.461 342.907 271.692 342.504C271.93 342.094 272.24 341.792 272.62 341.599C273 341.405 273.413 341.308 273.86 341.308C274.293 341.308 274.684 341.39 275.034 341.554C275.392 341.718 275.698 341.941 275.951 342.225C276.204 342.508 276.398 342.836 276.532 343.208C276.666 343.581 276.733 343.976 276.733 344.393V344.595C276.733 345.012 276.663 345.407 276.521 345.78C276.379 346.152 276.178 346.48 275.917 346.763C275.664 347.046 275.358 347.27 275.001 347.434C274.65 347.598 274.263 347.68 273.838 347.68C273.413 347.68 273.007 347.587 272.62 347.4C272.232 347.214 271.912 346.912 271.658 346.495C271.405 346.078 271.26 345.53 271.222 344.852L271.714 345.746V349.715H270.641ZM273.67 346.741C274.073 346.741 274.423 346.648 274.721 346.461C275.019 346.268 275.25 346.003 275.414 345.668C275.578 345.325 275.66 344.934 275.66 344.494C275.66 344.047 275.578 343.656 275.414 343.32C275.25 342.985 275.019 342.724 274.721 342.538C274.423 342.344 274.073 342.247 273.67 342.247C273.313 342.247 272.981 342.329 272.676 342.493C272.37 342.649 272.124 342.88 271.938 343.186C271.759 343.484 271.669 343.846 271.669 344.27V344.785C271.669 345.194 271.763 345.545 271.949 345.835C272.135 346.126 272.381 346.35 272.687 346.506C272.992 346.663 273.32 346.741 273.67 346.741ZM280.551 347.68C280.029 347.68 279.578 347.591 279.198 347.412C278.818 347.233 278.509 346.998 278.27 346.707C278.032 346.409 277.853 346.078 277.733 345.712C277.622 345.347 277.566 344.975 277.566 344.595V344.393C277.566 344.006 277.622 343.629 277.733 343.264C277.853 342.899 278.032 342.571 278.27 342.281C278.509 341.982 278.81 341.748 279.176 341.576C279.548 341.397 279.984 341.308 280.483 341.308C281.132 341.308 281.665 341.45 282.082 341.733C282.507 342.009 282.82 342.366 283.021 342.806C283.23 343.246 283.334 343.715 283.334 344.214V344.695H278.035V343.89H282.552L282.306 344.326C282.306 343.901 282.239 343.536 282.104 343.231C281.97 342.918 281.769 342.676 281.501 342.504C281.232 342.333 280.893 342.247 280.483 342.247C280.059 342.247 279.705 342.344 279.421 342.538C279.146 342.731 278.937 342.996 278.795 343.331C278.661 343.667 278.594 344.054 278.594 344.494C278.594 344.919 278.661 345.303 278.795 345.645C278.937 345.981 279.153 346.249 279.444 346.45C279.735 346.644 280.103 346.741 280.551 346.741C281.02 346.741 281.4 346.637 281.691 346.428C281.989 346.219 282.168 345.977 282.227 345.701H283.234C283.152 346.111 282.988 346.465 282.742 346.763C282.496 347.061 282.186 347.289 281.814 347.445C281.441 347.602 281.02 347.68 280.551 347.68ZM284.522 347.479V341.509H285.372V343.969H285.327C285.327 343.097 285.517 342.459 285.897 342.057C286.285 341.647 286.863 341.442 287.63 341.442H287.831V342.403H287.451C286.855 342.403 286.397 342.564 286.076 342.884C285.756 343.197 285.596 343.652 285.596 344.248V347.479H284.522ZM292.361 347.479V345.69H292.182V343.622C292.182 343.212 292.074 342.903 291.858 342.694C291.649 342.485 291.34 342.381 290.93 342.381C290.699 342.381 290.461 342.385 290.215 342.392C289.969 342.4 289.734 342.407 289.511 342.415C289.287 342.422 289.093 342.433 288.929 342.448V341.509C289.093 341.494 289.265 341.483 289.443 341.476C289.63 341.461 289.82 341.453 290.014 341.453C290.207 341.446 290.394 341.442 290.573 341.442C291.184 341.442 291.683 341.517 292.071 341.666C292.458 341.807 292.745 342.042 292.931 342.37C293.118 342.698 293.211 343.141 293.211 343.7V347.479H292.361ZM290.405 347.635C289.958 347.635 289.57 347.561 289.242 347.412C288.922 347.255 288.672 347.032 288.493 346.741C288.322 346.45 288.236 346.1 288.236 345.69C288.236 345.265 288.329 344.911 288.516 344.628C288.709 344.345 288.989 344.133 289.354 343.991C289.719 343.842 290.159 343.767 290.673 343.767H292.294V344.572H290.628C290.196 344.572 289.865 344.677 289.634 344.885C289.403 345.094 289.287 345.362 289.287 345.69C289.287 346.018 289.403 346.283 289.634 346.484C289.865 346.685 290.196 346.786 290.628 346.786C290.882 346.786 291.124 346.741 291.355 346.651C291.586 346.555 291.776 346.398 291.925 346.182C292.082 345.958 292.167 345.653 292.182 345.265L292.473 345.69C292.436 346.115 292.331 346.473 292.16 346.763C291.996 347.046 291.765 347.263 291.467 347.412C291.176 347.561 290.822 347.635 290.405 347.635Z"
                fill="#F67ACB" />
            <path d="M130.079 400.794L123.918 406.955L120.221 403.259" stroke="#F67ACB"
                stroke-width="1.34455" stroke-linecap="round" stroke-linejoin="round" />
            <rect x="144.421" y="402.978" width="62.7455" height="1.79273" fill="white" />
            <path d="M130.079 435.639L123.918 441.801L120.221 438.104" stroke="#F67ACB"
                stroke-width="1.34455" stroke-linecap="round" stroke-linejoin="round" />
            <rect x="144.421" y="437.823" width="62.7455" height="1.79273" fill="white" />
            <path
                d="M333.86 349.447C333.676 349.391 333.485 349.329 333.288 349.262C333.102 349.193 332.919 349.082 332.738 348.93C332.571 348.788 332.415 348.579 332.272 348.303C332.124 347.967 332.013 347.635 331.937 347.306C331.873 346.975 331.829 346.589 331.804 346.147C331.753 345.528 331.749 344.989 331.795 344.529C331.852 344.057 331.956 343.574 332.106 343.082C332.128 343.044 332.161 342.94 332.207 342.768C332.263 342.583 332.324 342.386 332.391 342.177C332.469 341.966 332.527 341.806 332.566 341.695C332.645 341.484 332.765 341.204 332.928 340.855C333.102 340.493 333.288 340.141 333.487 339.801C333.79 339.259 334.042 338.831 334.244 338.514C334.446 338.197 334.639 337.929 334.825 337.71C335.01 337.491 335.221 337.281 335.456 337.082C335.702 336.87 336.016 336.61 336.398 336.301C336.644 336.089 336.921 335.964 337.231 335.927C337.551 335.888 337.855 335.935 338.141 336.066C338.427 336.187 338.648 336.384 338.803 336.659C338.954 336.898 339.045 337.196 339.075 337.553C339.104 337.899 339.081 338.272 339.006 338.675C338.931 339.065 338.813 339.44 338.651 339.802C338.489 340.163 338.293 340.468 338.062 340.714C337.918 340.87 337.78 340.935 337.646 340.911C337.524 340.885 337.373 340.802 337.194 340.661C337.069 340.468 337 340.353 336.985 340.319C336.982 340.283 337.004 340.257 337.051 340.241C337.115 340.151 337.198 340.001 337.301 339.788C337.403 339.576 337.504 339.352 337.604 339.115C337.704 338.868 337.771 338.669 337.807 338.522C337.86 338.014 337.897 337.657 337.916 337.452C337.933 337.235 337.884 337.078 337.768 336.979C337.717 336.935 337.643 336.923 337.549 336.943C337.466 336.962 337.328 337.034 337.135 337.157C336.871 337.3 336.536 337.597 336.13 338.051C335.723 338.493 335.356 338.979 335.028 339.51C334.605 340.181 334.253 340.774 333.972 341.29C333.691 341.804 333.488 342.325 333.365 342.851C333.345 342.9 333.31 342.994 333.262 343.13C333.225 343.264 333.207 343.331 333.207 343.331C333.223 343.379 333.215 343.499 333.183 343.694C333.15 343.876 333.109 344.036 333.061 344.171C332.976 344.731 332.946 345.309 332.972 345.906C332.996 346.492 333.07 347.007 333.191 347.453C333.323 347.898 333.487 348.201 333.68 348.365C333.844 348.46 334.056 348.478 334.315 348.42C334.586 348.362 334.889 348.252 335.223 348.093C335.557 347.933 335.897 347.76 336.241 347.577C336.517 347.433 336.768 347.281 336.994 347.118C337.221 346.955 337.389 346.815 337.499 346.697C337.588 346.618 337.701 346.537 337.838 346.453C337.986 346.358 338.114 346.305 338.221 346.296C338.383 346.222 338.477 346.191 338.501 346.201C338.526 346.211 338.542 346.263 338.55 346.358C338.565 346.525 338.484 346.718 338.311 346.936C338.149 347.154 337.932 347.357 337.66 347.548C337.572 347.651 337.456 347.763 337.31 347.883C337.164 348.003 337.01 348.1 336.849 348.173C336.614 348.384 336.32 348.595 335.966 348.805C335.612 349.013 335.248 349.182 334.874 349.309C334.513 349.436 334.175 349.481 333.86 349.447ZM343.231 348.145C343.187 348.196 343.135 348.218 343.075 348.211C343.015 348.217 342.917 348.195 342.781 348.146C342.55 348.105 342.4 348.028 342.33 347.914C342.274 347.811 342.294 347.623 342.391 347.351C342.432 347.264 342.476 347.08 342.526 346.8C342.585 346.507 342.647 346.173 342.711 345.796C342.776 345.418 342.84 345.041 342.905 344.663C342.969 344.287 343.026 343.958 343.074 343.678C343.122 343.386 343.154 343.192 343.17 343.095C343.162 343 343.17 342.807 343.193 342.517C343.229 342.226 343.256 341.9 343.274 341.539C343.384 341.278 343.451 340.996 343.473 340.694C343.508 340.392 343.531 340.174 343.545 340.041C343.576 339.846 343.613 339.639 343.655 339.421C343.709 339.2 343.75 338.98 343.78 338.763C343.812 338.567 343.842 338.367 343.874 338.161C343.916 337.953 343.935 337.82 343.93 337.761L343.906 337.475L343.245 337.529C343.068 337.556 342.805 337.579 342.459 337.595C342.112 337.612 341.802 337.631 341.529 337.655C340.967 337.677 340.588 337.656 340.389 337.588C340.203 337.508 340.087 337.337 340.042 337.078C340.006 336.936 340.026 336.833 340.105 336.766C340.183 336.699 340.377 336.647 340.686 336.61C340.995 336.572 341.471 336.538 342.117 336.508C342.615 336.443 343.05 336.406 343.421 336.4C343.791 336.381 344 336.369 344.048 336.365C344.091 336.314 344.117 336.264 344.125 336.215C344.133 336.166 344.147 336.118 344.167 336.067C344.161 336.008 344.162 335.942 344.168 335.869C344.185 335.784 344.239 335.72 344.332 335.676C344.412 335.489 344.514 335.409 344.636 335.434C344.768 335.448 344.908 335.544 345.055 335.724C345.112 335.827 345.164 335.936 345.208 336.053C345.267 336.168 345.341 336.269 345.432 336.358C345.475 336.306 345.598 336.266 345.8 336.237C346.002 336.208 346.215 336.178 346.44 336.148C346.714 336.125 346.957 336.099 347.171 336.069C347.384 336.027 347.531 336.003 347.614 335.996C347.717 335.927 347.852 335.886 348.018 335.872C348.197 335.858 348.376 335.854 348.557 335.863C348.831 335.841 349.022 335.836 349.132 335.851C349.253 335.866 349.333 335.901 349.375 335.957C349.378 336.005 349.383 336.052 349.386 336.1C349.402 336.146 349.436 336.192 349.488 336.236C349.54 336.279 349.566 336.313 349.568 336.336C349.569 336.349 349.549 336.404 349.51 336.504C349.466 336.555 349.386 336.603 349.27 336.649C349.153 336.683 349.023 336.706 348.88 336.718C348.796 336.724 348.655 336.749 348.454 336.789C348.253 336.818 348.08 336.838 347.938 336.851C347.668 336.921 347.361 336.989 347.019 337.053C346.687 337.104 346.314 337.16 345.899 337.218C345.721 337.233 345.555 337.259 345.402 337.295C345.249 337.32 345.174 337.363 345.179 337.423C345.131 337.426 345.077 337.557 345.014 337.813C344.964 338.07 344.913 338.338 344.865 338.617C344.819 338.933 344.765 339.208 344.7 339.441C344.647 339.673 344.6 339.828 344.558 339.903C344.61 339.946 344.633 340.004 344.627 340.077C344.633 340.148 344.608 340.277 344.551 340.461C344.517 340.632 344.48 340.767 344.441 340.866C344.413 340.964 344.403 341.061 344.411 341.156C344.411 341.156 344.389 341.254 344.346 341.449C344.313 341.632 344.284 341.862 344.259 342.14C344.257 342.405 344.24 342.628 344.207 342.811C344.186 342.992 344.154 343.108 344.11 343.16C344.11 343.16 344.091 343.204 344.049 343.291C344.008 343.366 343.991 343.452 343.999 343.547C344.008 343.654 343.999 343.835 343.972 344.089C343.956 344.33 343.934 344.56 343.903 344.778C343.874 344.997 343.842 345.12 343.808 345.147C343.929 345.16 343.925 345.322 343.795 345.633C343.805 345.752 343.797 345.873 343.771 345.995C343.745 346.116 343.735 346.202 343.738 346.249C343.686 346.481 343.624 346.739 343.551 347.021C343.478 347.302 343.415 347.548 343.36 347.756C343.307 347.976 343.264 348.105 343.231 348.145ZM346.781 347.957C346.556 347.855 346.426 347.734 346.391 347.594C346.367 347.451 346.429 347.194 346.578 346.822C346.727 346.45 346.961 345.873 347.28 345.09C347.521 344.531 347.7 344.096 347.819 343.786C347.948 343.464 348.03 343.235 348.067 343.1C348.115 342.964 348.139 342.878 348.135 342.842C348.103 342.737 348.107 342.653 348.15 342.589C348.191 342.514 348.264 342.448 348.367 342.391C348.422 342.327 348.509 342.212 348.626 342.046C348.756 341.879 348.872 341.684 348.973 341.459C349.06 341.2 349.163 340.934 349.284 340.659C349.406 340.386 349.569 340.043 349.774 339.629C349.979 339.205 350.245 338.655 350.572 337.98C350.776 337.544 351.002 337.098 351.253 336.645C351.502 336.181 351.769 335.721 352.055 335.266C352.172 335.088 352.28 334.947 352.379 334.843C352.478 334.726 352.581 334.67 352.689 334.673C352.832 334.661 352.997 334.696 353.183 334.776C353.381 334.855 353.565 334.966 353.733 335.108C353.9 335.25 354.028 335.407 354.114 335.58C354.181 335.67 354.222 335.871 354.236 336.181C354.25 336.492 354.257 336.869 354.258 337.312C354.259 337.756 354.257 338.23 354.251 338.735C354.256 339.226 354.251 339.808 354.235 340.481C354.219 341.154 354.205 341.856 354.194 342.589C354.195 343.321 354.207 344.027 354.228 344.709C354.247 345.379 354.296 345.962 354.374 346.46C354.394 346.566 354.403 346.667 354.399 346.764C354.395 346.86 354.395 346.938 354.401 346.998C354.335 347.075 354.219 347.114 354.05 347.116C353.896 347.129 353.738 347.106 353.577 347.048C353.428 346.989 353.337 346.906 353.304 346.8C353.266 346.768 353.238 346.722 353.221 346.664C353.216 346.592 353.209 346.449 353.203 346.234C353.198 346.018 353.181 345.678 353.154 345.212L353.002 342.31L352.771 342.348C352.664 342.357 352.463 342.386 352.167 342.434C351.871 342.483 351.553 342.545 351.211 342.622C350.869 342.686 350.551 342.755 350.257 342.828C349.974 342.887 349.781 342.939 349.676 342.984C349.569 342.993 349.444 343.075 349.301 343.231C349.17 343.386 349.048 343.582 348.936 343.819C348.902 343.989 348.828 344.176 348.713 344.378C348.609 344.566 348.559 344.69 348.564 344.749C348.485 344.816 348.42 344.894 348.368 344.982C348.327 345.069 348.307 345.113 348.307 345.113C348.312 345.184 348.268 345.368 348.173 345.664C348.088 345.946 347.977 346.268 347.839 346.626C347.7 346.974 347.558 347.28 347.413 347.544L347.084 348.147L346.781 347.957ZM349.999 341.895C349.999 341.895 350.058 341.878 350.175 341.844C350.304 341.81 350.451 341.774 350.615 341.736C350.791 341.686 350.95 341.654 351.094 341.643C351.583 341.481 351.941 341.374 352.164 341.319C352.386 341.253 352.539 341.216 352.622 341.209C352.718 341.201 352.802 341.212 352.877 341.242C352.93 341.298 352.974 341.33 353.011 341.339C353.06 341.346 353.084 341.35 353.084 341.35C353.094 341.325 353.1 341.187 353.104 340.935C353.106 340.683 353.11 340.371 353.115 339.999C353.132 339.625 353.142 339.24 353.145 338.845C353.159 338.436 353.164 338.064 353.16 337.728C353.155 337.38 353.151 337.117 353.147 336.938C353.14 336.71 353.136 336.507 353.133 336.327C353.129 336.135 353.127 336.04 353.127 336.04C353.055 336.046 352.912 336.19 352.695 336.472C352.49 336.752 352.264 337.12 352.014 337.572C351.763 338.024 351.533 338.505 351.324 339.015C351.224 339.251 351.128 339.463 351.036 339.65C350.943 339.838 350.867 339.934 350.807 339.939C350.786 339.965 350.723 340.078 350.62 340.278C350.527 340.466 350.426 340.684 350.315 340.934C350.203 341.171 350.113 341.388 350.045 341.585C349.977 341.772 349.962 341.875 349.999 341.895Z"
                fill="#F67ACB" />
        </g>
        <path
            d="M26.1036 108.947C26.1036 93.0174 39.0174 80.1036 54.9473 80.1036H989.535C1005.46 80.1036 1018.38 93.0174 1018.38 108.947H1016.59C1016.59 94.0075 1004.47 81.8964 989.535 81.8964H54.9473C40.0075 81.8964 27.8964 94.0075 27.8964 108.947H26.1036ZM1017.48 555.176H27H1017.48ZM26.1036 555.176V108.947C26.1036 93.0174 39.0174 80.1036 54.9473 80.1036V81.8964C40.0075 81.8964 27.8964 94.0075 27.8964 108.947V555.176H26.1036ZM989.535 80.1036C1005.46 80.1036 1018.38 93.0174 1018.38 108.947V555.176H1016.59V108.947C1016.59 94.0075 1004.47 81.8964 989.535 81.8964V80.1036Z"
            fill="white" mask="url(#path-1-inside-1_69_1267)" />
        <path
            d="M19.8323 62.9237C19.8323 62.9237 19.8179 62.9114 19.7889 62.8865C19.7587 62.8722 19.7181 62.8565 19.6669 62.8396C19.6262 62.8239 19.5743 62.8123 19.5114 62.8045C19.3486 62.742 19.2395 62.6328 19.184 62.4769C19.1273 62.3314 19.1302 62.1774 19.1927 62.0146C19.2398 61.9778 19.2822 61.8924 19.3199 61.7585C19.3576 61.6247 19.3816 61.5158 19.3919 61.4319C19.4442 61.353 19.4774 61.2986 19.4918 61.2683C19.5074 61.2277 19.5465 61.126 19.6091 60.9632C19.6624 60.7886 19.745 60.5484 19.8571 60.2426C19.9809 59.9276 20.1125 59.5922 20.2519 59.2364C20.4018 58.882 20.5445 58.5427 20.6801 58.2184C20.8157 57.8942 20.9343 57.6211 21.0361 57.3992C21.1483 57.1787 21.222 57.0546 21.2574 57.0269C21.2574 57.0269 21.2593 57.0112 21.2632 56.9797C21.2683 56.9377 21.2734 56.8958 21.2786 56.8537C21.2786 56.8537 21.2896 56.8072 21.3117 56.7141C21.3455 56.6117 21.4121 56.5027 21.5115 56.387C21.5676 56.2767 21.6198 56.1553 21.668 56.0227C21.7161 55.8901 21.7428 55.8029 21.7479 55.7609C21.7963 55.7136 21.8695 55.5947 21.9673 55.4043C22.077 55.2047 22.1808 55.0097 22.2786 54.8193C22.3622 54.6591 22.4522 54.489 22.5488 54.3092C22.6559 54.1306 22.744 53.9763 22.8132 53.8462C22.8929 53.7176 22.9327 53.6532 22.9327 53.6532C22.9378 53.6112 22.9404 53.5902 22.9404 53.5902C22.9417 53.5797 22.9423 53.5745 22.9423 53.5745C22.9895 53.5376 23.1149 53.34 23.3185 52.9814C23.534 52.6138 23.8206 52.1429 24.1785 51.569C24.2308 51.4901 24.2948 51.4021 24.3706 51.3048C24.4464 51.2076 24.4869 51.1381 24.492 51.0961C24.5548 51.0185 24.6328 50.9908 24.7259 51.0129C24.8204 51.0245 24.911 51.0675 24.9977 51.142C25.0949 51.2178 25.1627 51.3167 25.201 51.4385L25.3276 51.7097L24.6221 52.7736C24.4183 53.0469 24.2438 53.2972 24.0988 53.5244C23.9643 53.7529 23.8945 53.8882 23.8894 53.9301C23.8894 53.9301 23.8476 54.0102 23.7641 54.1704C23.6806 54.3306 23.5827 54.521 23.4705 54.7415C23.3583 54.9622 23.2591 55.163 23.173 55.3442C23.0177 55.6554 22.8748 55.9095 22.7441 56.1066C22.624 56.3049 22.5613 56.425 22.5562 56.467C22.5588 56.446 22.6761 56.4444 22.9083 56.4621C23.1404 56.4799 23.4349 56.5107 23.7917 56.5543C24.1485 56.5981 24.5106 56.6424 24.8779 56.6874C25.2569 56.7232 25.5882 56.7583 25.8714 56.7931C26.1666 56.8186 26.3679 56.8273 26.4754 56.8191L27.3036 56.8406L28.0373 55.2848C28.1572 55.0013 28.3111 54.6579 28.499 54.2549C28.6868 53.8518 28.8511 53.5098 28.9921 53.2288C29.2191 52.7667 29.3868 52.4837 29.4955 52.3798C29.604 52.2759 29.7213 52.2317 29.8472 52.2471C29.8787 52.251 29.9194 52.2666 29.9693 52.294C30.031 52.3122 30.0855 52.3455 30.1329 52.3939C30.1919 52.4331 30.2281 52.4855 30.2414 52.551C30.3532 52.6819 30.3949 52.8201 30.3664 52.9657C30.3484 53.1127 30.2407 53.2965 30.0432 53.5173C29.8406 53.7801 29.6611 54.0723 29.5045 54.394C29.3597 54.7065 29.2324 54.9625 29.1228 55.1621C29.1074 55.2881 29.0788 55.391 29.037 55.4711C28.9965 55.5407 28.9527 55.594 28.9057 55.6308C28.8821 55.6492 28.8305 55.7228 28.7508 55.8515C28.6712 55.9802 28.5967 56.1096 28.5275 56.2396C28.4584 56.3696 28.4218 56.4503 28.418 56.4818C28.409 56.5552 28.3824 56.6425 28.338 56.7436C28.2937 56.8447 28.2479 56.9136 28.2008 56.9505C28.1721 57.0109 28.1057 57.1625 28.0013 57.4054C27.897 57.6482 27.7764 57.937 27.6396 58.2718C27.5041 58.596 27.3639 58.9144 27.2191 59.2268C27.0756 59.5288 26.949 59.7796 26.8393 59.9792C26.8304 60.0527 26.7926 60.1439 26.7259 60.2529C26.6606 60.3514 26.6228 60.4426 26.6125 60.5266C26.5552 60.6474 26.4834 60.7984 26.3973 60.9795C26.3113 61.1608 26.2649 61.2776 26.2586 61.33C26.1765 61.565 26.0886 61.8046 25.9948 62.0487C25.9115 62.2941 25.8379 62.5034 25.7741 62.6767C25.7195 62.8618 25.6903 62.97 25.6864 63.0015C25.6393 63.0384 25.5757 63.0359 25.4956 62.9941C25.4155 62.9524 25.3203 62.9034 25.21 62.8473C25.0248 62.7075 24.9195 62.5668 24.8942 62.4251C24.8782 62.2954 24.9426 62.1169 25.0876 61.8897C25.1503 61.8122 25.2384 61.6152 25.3516 61.2989C25.4768 60.9734 25.6012 60.6531 25.725 60.338C25.8072 60.1883 25.9011 59.9868 26.0067 59.7335C26.1136 59.4696 26.2205 59.2057 26.3273 58.9419C26.4355 58.6676 26.5273 58.4391 26.603 58.2566C26.6798 58.0637 26.73 57.958 26.7536 57.9396C26.7587 57.8976 26.7632 57.8609 26.7671 57.8294C26.771 57.798 26.7729 57.7822 26.7729 57.7822C26.7545 57.7586 26.6252 57.7268 26.3852 57.6868C26.1463 57.6362 25.8479 57.5944 25.4899 57.5612C25.133 57.5175 24.7592 57.4823 24.3683 57.4558C23.9893 57.42 23.645 57.4045 23.3355 57.4092C23.2201 57.3951 23.0889 57.379 22.942 57.361C22.7951 57.3431 22.6797 57.3289 22.5957 57.3186C22.4803 57.3045 22.3806 57.2923 22.2966 57.282C22.2232 57.273 22.1864 57.2685 22.1864 57.2685C22.1721 57.2987 22.1219 57.4044 22.0358 57.5856C21.9497 57.7668 21.848 57.9886 21.7306 58.2512C21.6145 58.5033 21.4919 58.7652 21.3627 59.037C21.2454 59.2995 21.1411 59.5424 21.0499 59.7655C20.9704 59.9795 20.9144 60.1324 20.8818 60.2243C20.8167 60.4081 20.7301 60.6371 20.622 60.9115C20.5243 61.1871 20.4155 61.4667 20.2956 61.7502C20.1848 62.0455 20.0845 62.2996 19.9945 62.5122C19.9151 62.7262 19.861 62.8634 19.8323 62.9237ZM31.2277 62.4338C30.9842 62.5957 30.7137 62.6744 30.4159 62.67C30.1287 62.6667 29.8558 62.5907 29.5971 62.4418C29.3396 62.2825 29.1372 62.066 28.9896 61.7923C28.8394 61.5396 28.7562 61.2631 28.7397 60.9628C28.7244 60.6521 28.7674 60.2579 28.8684 59.7803C28.9501 59.3749 29.1314 58.9817 29.4124 58.6007C29.6946 58.2092 30.0183 57.8707 30.3835 57.5852C30.7592 57.301 31.1173 57.1159 31.458 57.0298C31.6284 56.9441 31.7653 56.913 31.8689 56.9363C31.9843 56.9505 32.1563 56.9822 32.3846 57.0314C32.6221 57.0925 32.7947 57.1615 32.9024 57.2386C33.0206 57.317 33.11 57.4132 33.1706 57.5271C33.3088 57.7038 33.3944 57.8741 33.4276 58.0379C33.4621 58.1912 33.4704 58.3414 33.4524 58.4882C33.3821 58.714 33.19 58.9781 32.8761 59.2805C32.5738 59.5737 32.1947 59.7989 31.7389 59.956C31.499 60.0012 31.2432 60.0019 30.9717 59.958C30.7001 59.9141 30.4829 59.8182 30.3199 59.6705C30.1307 59.5621 29.9977 59.5617 29.9205 59.6695C29.8448 59.7667 29.7549 60.022 29.651 60.4354C29.5603 60.829 29.5557 61.1267 29.6376 61.3284C29.7207 61.5197 29.8495 61.6419 30.024 61.6953C30.2287 61.763 30.3875 61.8144 30.5004 61.8494C30.625 61.8754 30.783 61.8468 30.9742 61.7637C31.155 61.6793 31.267 61.6345 31.3103 61.6291C31.3548 61.6133 31.3889 61.5961 31.4124 61.5777C31.4478 61.5501 31.5243 61.4902 31.6421 61.3982C31.7246 61.3336 31.7887 61.2882 31.8346 61.2619C31.8816 61.225 31.9315 61.2099 31.9839 61.2163C32.0364 61.2227 32.0804 61.2548 32.116 61.3123C32.1528 61.3595 32.1909 61.3961 32.2304 61.4222C32.3353 61.4351 32.3485 61.5006 32.2702 61.6188C32.2023 61.7383 32.0735 61.877 31.8837 62.0349C31.6952 62.1822 31.4766 62.3152 31.2277 62.4338ZM31.6206 59.0947C31.7425 59.0564 31.8722 58.9978 32.0096 58.9188C32.1484 58.8292 32.2668 58.7319 32.3649 58.6267C32.4748 58.5124 32.5349 58.4132 32.5451 58.3292C32.5631 58.1823 32.5097 58.0533 32.3849 57.9421C32.2613 57.8205 32.0586 57.7797 31.7767 57.8197C31.6575 57.8371 31.5166 57.8998 31.3543 58.0077C31.1933 58.1052 31.0355 58.219 30.8811 58.3491C30.7372 58.4807 30.6161 58.599 30.5181 58.7042C30.4305 58.8106 30.3959 58.8756 30.4144 58.8992C30.4394 58.9554 30.5235 59.0083 30.6665 59.0578C30.8109 59.0968 30.9728 59.122 31.1526 59.1333C31.3427 59.146 31.4988 59.1331 31.6206 59.0947ZM34.9026 62.9797C34.8161 62.9904 34.7046 62.9874 34.5682 62.9707C34.4331 62.9435 34.3143 62.913 34.212 62.8792C34.1214 62.8361 34.078 62.7988 34.0819 62.7673C34.0883 62.7149 34.0653 62.6854 34.0128 62.679C34.0128 62.679 33.9891 62.6548 33.9418 62.6064C33.9049 62.5592 33.8419 62.5089 33.7526 62.4554C33.6761 62.2969 33.6482 62.1337 33.6687 61.9658C33.6906 61.7874 33.7718 61.5151 33.9126 61.1489C33.9762 60.8904 34.1131 60.5982 34.3234 60.2725C34.5455 59.9376 34.805 59.6018 35.1018 59.2654C35.3986 58.929 35.7015 58.6306 36.0104 58.3701C36.3297 58.111 36.6131 57.9273 36.8607 57.8192C37.0256 57.6903 37.2136 57.6334 37.4248 57.6486C37.6359 57.6638 37.8296 57.7355 38.0056 57.8635C38.1041 57.9288 38.1988 58.0256 38.2896 58.1539C38.3803 58.2822 38.4647 58.4204 38.5424 58.5683C38.6201 58.7163 38.6822 58.8624 38.7284 59.0065C38.7457 59.1258 38.7486 59.2327 38.737 59.3271C38.7373 59.4124 38.7244 59.5173 38.6985 59.6419C38.6831 59.7679 38.6442 59.9548 38.5819 60.2028C38.5063 60.3853 38.4308 60.6104 38.3554 60.8781C38.2905 61.1471 38.2459 61.3813 38.2215 61.5807C38.176 61.7775 38.1797 61.9217 38.2323 62.0134C38.2956 62.1063 38.3999 62.1244 38.5452 62.0677C38.6789 62.0201 38.8028 62.0086 38.9169 62.0333C39.0324 62.0474 39.1177 62.0898 39.1729 62.1605C39.2388 62.2325 39.2639 62.3314 39.2485 62.4573C39.2331 62.5833 39.1541 62.7068 39.0114 62.8278C38.8805 62.9396 38.7202 63.0318 38.5302 63.1043C38.352 63.1678 38.1842 63.1898 38.0268 63.1705C37.9113 63.1564 37.8095 63.0747 37.7213 62.9254C37.6343 62.7657 37.5611 62.5809 37.5016 62.3713C37.4538 62.1524 37.41 61.9446 37.3701 61.7481L37.3201 61.3745L36.5641 61.9369C36.4097 62.0671 36.2566 62.1869 36.1047 62.2961C35.9647 62.3961 35.8757 62.4704 35.8378 62.519C35.7738 62.607 35.6625 62.6893 35.5041 62.7657C35.356 62.8435 35.1556 62.9148 34.9026 62.9797ZM35.0636 62.0567C35.2549 61.9736 35.4782 61.8465 35.7334 61.6754C35.99 61.4938 36.2432 61.2959 36.4931 61.0814C36.7444 60.8566 36.9563 60.6482 37.1289 60.4563C37.3369 60.2368 37.5009 60.0279 37.6211 59.8296C37.7412 59.6313 37.8338 59.4402 37.8989 59.2564C37.8711 59.1359 37.8177 59.0068 37.7386 58.8694C37.6609 58.7214 37.586 58.6376 37.5138 58.6181C37.2829 58.5898 37.0183 58.7066 36.72 58.9682C36.4334 59.2208 36.1489 59.5001 35.8664 59.8064C35.818 59.8537 35.75 59.9307 35.6624 60.0371C35.5748 60.1435 35.4879 60.2447 35.4016 60.3406C35.327 60.4273 35.2773 60.4852 35.2525 60.5141C35.2159 60.5523 35.1382 60.6652 35.0193 60.853C34.9121 61.0317 34.8044 61.2155 34.6961 61.4046C34.589 61.5832 34.5316 61.7041 34.5239 61.767C34.5162 61.83 34.5131 61.8988 34.5146 61.9735C34.5266 62.0495 34.5733 62.1032 34.6547 62.1345C34.736 62.1658 34.8724 62.1398 35.0636 62.0567ZM43.9143 64.8501C43.774 64.8649 43.6611 64.8298 43.5757 64.7447C43.4994 64.6714 43.448 64.5693 43.4215 64.4382C43.3671 64.1866 43.3363 63.9166 43.329 63.6281C43.3334 63.3304 43.3597 63.0726 43.4077 62.8548L43.4796 62.5281L42.806 62.9409C42.4106 63.212 42.0367 63.3953 41.6842 63.4905C41.3422 63.5872 41.0453 63.62 40.7933 63.5891C40.6805 63.5541 40.5702 63.498 40.4625 63.4209C40.3547 63.3438 40.2594 63.2522 40.1765 63.1462C40.1042 63.0415 40.0481 62.9334 40.0086 62.822C39.9636 62.6674 39.967 62.4655 40.0189 62.2162C40.0812 61.9682 40.1775 61.703 40.308 61.4208C40.4502 61.1293 40.6121 60.8509 40.7937 60.5855C40.9871 60.3109 41.197 60.0757 41.4233 59.8798C41.8339 59.3975 42.2457 59.123 42.6585 59.0564C43.0714 58.9898 43.4579 59.0957 43.8179 59.3741C44.0767 59.523 44.2381 59.596 44.3024 59.5932C44.3771 59.5917 44.4549 59.4787 44.5356 59.2543C44.5981 59.0915 44.6607 58.9288 44.7232 58.766C44.787 58.5927 44.8841 58.3649 45.0146 58.0827C45.3746 57.3173 45.6767 56.7205 45.9208 56.2924C46.1755 55.8655 46.402 55.4939 46.6006 55.1773C46.7455 54.9501 46.858 54.8148 46.9379 54.7713C47.0295 54.7186 47.1167 54.7026 47.1994 54.7234C47.3148 54.7375 47.4146 54.7923 47.4988 54.8879C47.583 54.9834 47.6423 55.1078 47.6768 55.2612C47.7072 55.3608 47.7126 55.4467 47.6931 55.5189C47.6854 55.5818 47.643 55.6671 47.5659 55.7749C47.3987 56.01 47.1949 56.3259 46.9546 56.7225C46.726 57.11 46.4872 57.5387 46.2379 58.0088C45.9991 58.4802 45.7715 58.9476 45.5549 59.411C45.3384 59.8745 45.1552 60.2834 45.0053 60.6379C44.914 60.8611 44.8203 61.1479 44.7242 61.4982C44.6385 61.8499 44.5567 62.2127 44.479 62.5866C44.4026 62.95 44.3411 63.278 44.2946 63.5706C44.2599 63.8539 44.248 64.0389 44.2587 64.1253C44.2959 64.343 44.3029 64.5035 44.2795 64.6073C44.2667 64.7122 44.2321 64.7772 44.1757 64.8022C44.1182 64.8378 44.031 64.8537 43.9143 64.8501ZM41.468 62.777C41.6187 62.7636 41.7675 62.7232 41.9142 62.6559C42.0714 62.59 42.2358 62.509 42.4073 62.4128C42.7517 62.21 43.0515 62.023 43.3068 61.8519C43.5621 61.6808 43.7515 61.3951 43.8751 60.9948C43.9205 60.798 43.9188 60.638 43.8699 60.5149C43.8329 60.3825 43.7578 60.2561 43.6448 60.1358C43.5291 60.0364 43.3598 59.9838 43.1369 59.9777C42.9257 59.9625 42.6919 60.0457 42.4353 60.2273C42.1552 60.4274 41.8706 60.7067 41.5817 61.0655C41.3033 61.4255 41.0717 61.8818 40.8868 62.4343C40.853 62.5366 40.8742 62.6245 40.9505 62.6977C41.0267 62.7709 41.1992 62.7974 41.468 62.777ZM47.1545 64.5598C46.7658 64.3418 46.5265 64.0782 46.4365 63.7689C46.3583 63.4505 46.3945 62.9809 46.5451 62.3603C46.6059 62.0375 46.6427 61.8237 46.6556 61.7187C46.6684 61.6138 46.6236 61.5018 46.521 61.3827C46.4946 61.3368 46.444 61.2721 46.369 61.1883C46.3046 61.1059 46.2808 61.0391 46.2977 60.9878C46.2962 60.9131 46.3111 60.8351 46.3424 60.7537C46.3749 60.6618 46.4122 60.6185 46.4541 60.6236C46.4962 60.6287 46.5394 60.6234 46.584 60.6076C46.639 60.5929 46.6862 60.5988 46.7257 60.6249C46.7676 60.63 46.8142 60.641 46.8653 60.658C46.9165 60.6749 46.9396 60.7044 46.9344 60.7463C46.9674 60.8249 47.0343 60.8437 47.1352 60.8029C47.2374 60.7515 47.3537 60.6273 47.4844 60.4302C47.6099 60.2751 47.7669 60.124 47.9554 59.9766C48.1544 59.8306 48.3461 59.6996 48.5307 59.5837C48.7271 59.4586 48.8869 59.3717 49.01 59.3229C49.065 59.3083 49.1469 59.2917 49.2558 59.2731C49.3646 59.2544 49.478 59.2417 49.5959 59.2349C49.7245 59.2293 49.8301 59.2369 49.9128 59.2576C50.1004 59.2913 50.2513 59.363 50.3657 59.4729C50.4905 59.584 50.603 59.7096 50.703 59.8497C50.8279 59.9609 50.8964 60.0971 50.9086 60.2583C50.9313 60.4209 50.9213 60.5901 50.8784 60.7659C50.8355 60.9417 50.7684 61.0986 50.677 61.2365C50.6327 61.3376 50.528 61.4527 50.3631 61.5815C50.1982 61.7105 50.013 61.8316 49.8074 61.9449C49.6018 62.0582 49.4164 62.1367 49.2513 62.1804C49.1109 62.1952 48.9294 62.1995 48.7064 62.1935C48.4939 62.1888 48.2933 62.1749 48.1044 62.1518C47.9273 62.1195 47.8092 62.0837 47.75 62.0445C47.6818 61.9935 47.6169 62.0442 47.5557 62.1964C47.4945 62.3487 47.4354 62.5704 47.3784 62.8617C47.3292 63.09 47.3086 63.2579 47.3167 63.3654C47.3249 63.4729 47.3368 63.5489 47.3527 63.5935C47.4172 63.676 47.5053 63.7827 47.6171 63.9135C47.7407 64.0351 47.9276 64.074 48.178 64.0301C48.3838 64.0021 48.5946 63.8894 48.8105 63.6921C49.0369 63.4962 49.2424 63.3403 49.427 63.2244C49.478 63.1561 49.5513 63.1224 49.647 63.1235C49.7546 63.1154 49.8641 63.1341 49.9757 63.1798C50.0821 63.2673 50.1184 63.3623 50.0845 63.4647C50.0625 63.5579 49.9921 63.6984 49.8732 63.8862C49.8327 63.9558 49.7477 64.0412 49.6182 64.1425C49.5004 64.2346 49.3662 64.33 49.2156 64.4287C49.0768 64.5183 48.9511 64.5881 48.8384 64.6382C48.5031 64.7676 48.1983 64.8208 47.9242 64.7979C47.6513 64.7645 47.3948 64.6852 47.1545 64.5598ZM48.4745 61.4781C48.7118 61.4539 48.9 61.4396 49.0389 61.4354C49.1779 61.4311 49.3162 61.3894 49.4537 61.3105C49.5925 61.2209 49.7736 61.046 49.9972 60.7858C50.0533 60.6755 50.078 60.5614 50.0711 60.4434C50.0747 60.3267 50.0581 60.2448 50.0213 60.1976C49.9397 60.0811 49.8282 60.0355 49.6865 60.0608C49.5568 60.0768 49.429 60.1197 49.3033 60.1896C49.226 60.2121 49.1062 60.2773 48.9438 60.3852C48.7933 60.4839 48.6401 60.6037 48.4844 60.7444C48.33 60.8746 48.2032 60.9975 48.1038 61.1132C48.0044 61.2288 47.9744 61.2997 48.0138 61.3259C47.9877 61.3652 48.0422 61.3985 48.1773 61.4258C48.323 61.4543 48.422 61.4717 48.4745 61.4781ZM52.1452 65.0591C52.1125 65.0658 52.0607 65.0541 51.9898 65.0241C51.9188 64.9941 51.8486 64.9589 51.779 64.9184C51.7094 64.878 51.6654 64.8459 51.647 64.8224C51.6102 64.7752 51.5759 64.7072 51.5442 64.6181C51.5229 64.5302 51.5377 64.4096 51.5885 64.256C51.6406 64.0919 51.7719 63.8896 51.9824 63.6492C52.0477 63.5507 52.1299 63.401 52.2291 63.2001C52.3282 62.9992 52.4287 62.7878 52.5304 62.5659C52.6439 62.3348 52.7438 62.1287 52.8298 61.9475C52.9264 61.7676 52.9949 61.6428 53.0355 61.5733C53.0783 61.3975 53.0832 61.2703 53.0502 61.1916C53.029 61.1038 52.9456 61.0456 52.7999 61.0172C52.695 61.0044 52.6123 60.9836 52.5519 60.9549C52.502 60.9275 52.4887 60.8193 52.5118 60.6304C52.5508 60.4861 52.5997 60.3909 52.6586 60.3448C52.7293 60.2895 52.8216 60.2316 52.9355 60.171C53.0469 60.1314 53.1564 60.1075 53.2638 60.0994C53.3819 60.0925 53.4927 60.1008 53.5963 60.1241C53.7 60.1474 53.7794 60.1945 53.8347 60.2651C53.903 60.3161 53.9386 60.4164 53.9417 60.5659C53.946 60.7049 53.9391 60.8478 53.9211 60.9947C53.9136 61.1429 53.9106 61.2544 53.9121 61.3291C54.0273 61.2581 54.1831 61.1599 54.3795 61.0348C54.5877 60.9006 54.7683 60.7736 54.9215 60.6539C55.1035 60.559 55.317 60.468 55.562 60.3808C55.8083 60.2831 55.984 60.2408 56.0889 60.2536C56.2043 60.2677 56.3159 60.3134 56.4236 60.3905C56.5326 60.4571 56.603 60.5349 56.6347 60.624C56.7178 60.8152 56.7457 60.9784 56.7185 61.1136C56.7018 61.25 56.6268 61.3846 56.4933 61.5174C56.3717 61.6409 56.2289 61.7194 56.0651 61.7526C55.9117 61.787 55.8141 61.8017 55.7721 61.7965C55.7092 61.7888 55.6363 61.732 55.5534 61.626C55.4705 61.5199 55.4276 61.4348 55.4249 61.3706C55.4287 61.3391 55.3566 61.3622 55.2087 61.44C55.0725 61.5085 54.9173 61.6013 54.7432 61.7185C54.5703 61.8252 54.425 61.9245 54.3072 62.0166C54.1018 62.2152 53.8764 62.4911 53.6307 62.8444C53.385 63.1978 53.093 63.6254 52.7547 64.1272C52.5966 64.3741 52.4798 64.5888 52.4041 64.7713C52.3298 64.9433 52.2435 65.0392 52.1452 65.0591Z"
            fill="#F67ACB" />
        <path
            d="M72.0472 70.2396C74.1505 70.244 76.1687 70.2565 78.1856 70.2614C78.5877 70.2641 78.8715 70.2657 79.377 70.1883C79.753 70.1346 80.548 70.0041 80.4075 69.6245C80.2578 69.3231 80.1118 69.128 79.4137 69.0572C77.61 68.8831 75.7914 68.9718 73.9868 69.0503C72.3932 69.1207 71.179 69.1981 69.7721 69.3413C69.115 69.4082 68.9129 69.7665 69.0949 70.3297C69.2585 70.8351 69.4171 71.3568 69.6756 71.8218C70.5983 73.5036 71.5625 75.1548 72.5142 76.8237C72.6311 77.0317 72.7093 77.2009 72.885 77.4287C73.1006 77.7027 73.2417 77.914 73.553 77.7651C73.8505 77.6264 73.7538 77.1853 73.6598 76.973C72.9141 75.1824 71.3123 71.514 71.2729 71.2995C72.3849 71.7381 73.4238 72.1212 74.4416 72.5618C81.5147 75.6628 88.2954 79.2304 94.1051 84.3301C98.7035 88.3666 102.726 92.8683 106.026 97.9769C106.223 98.2774 106.448 98.5647 106.671 98.8375C106.968 99.2113 107.191 99.3539 107.402 99.2159C107.762 98.905 107.628 98.6008 107.543 98.3489C107.379 97.8434 107.102 97.3662 106.836 96.9026C103.21 90.7375 98.3085 85.6548 92.6932 81.1851C86.9306 76.5972 80.3393 73.4613 73.445 70.8629C73.0759 70.7394 72.1935 70.3506 72.0472 70.2396Z"
            fill="#F67ACB" />
        <g clip-path="url(#clip2_69_1267)">
            <mask id="path-17-inside-2_69_1267" fill="white">
                <path
                    d="M208 33.5385C208 15.0157 223.016 0 241.538 0H488.885C507.407 0 522.423 15.0157 522.423 33.5385V511.462C522.423 529.984 507.407 545 488.885 545H241.538C223.016 545 208 529.984 208 511.462V33.5385Z" />
            </mask>
            <path
                d="M208 33.5385C208 15.0157 223.016 0 241.538 0H488.885C507.407 0 522.423 15.0157 522.423 33.5385V511.462C522.423 529.984 507.407 545 488.885 545H241.538C223.016 545 208 529.984 208 511.462V33.5385Z"
                fill="url(#paint1_linear_69_1267)" />
            <rect width="314.423" height="73.7846" transform="translate(208)"
                fill="url(#paint2_linear_69_1267)" />
            <rect width="314.423" height="218.838" transform="translate(208 423.423)"
                fill="url(#paint3_linear_69_1267)" />
            <g clip-path="url(#clip3_69_1267)">
            </g>
            <rect x="228.542" y="430.55" width="273.338" height="204.585" rx="9.64231"
                stroke="white" stroke-width="0.838462" />
            <circle cx="258.307" cy="103.969" r="29.8999" stroke="#343434" stroke-width="0.569521" />
            <g clip-path="url(#clip4_69_1267)">
                <path
                    d="M260.939 96.6762L256.395 102.789L259.848 107.423L257.91 108.901L252.43 101.58L245.145 111.341H271.877L260.939 96.6762Z"
                    fill="#F67ACB" />
            </g>
            <circle cx="329.577" cy="103.969" r="29.8999" stroke="#343434" stroke-width="0.569521" />
            <g clip-path="url(#clip5_69_1267)">
                <path
                    d="M332.209 96.6761L327.664 102.789L331.117 107.423L329.179 108.901L323.699 101.579L316.415 111.341H343.147L332.209 96.6761Z"
                    fill="#F67ACB" />
            </g>
            <circle cx="400.846" cy="103.969" r="29.8999" stroke="#343434" stroke-width="0.569521" />
            <g clip-path="url(#clip6_69_1267)">
                <path
                    d="M403.478 96.6761L398.933 102.789L402.386 107.423L400.448 108.901L394.968 101.579L387.684 111.341H414.416L403.478 96.6761Z"
                    fill="#F67ACB" />
            </g>
            <rect width="314.423" height="218.838" transform="translate(208 147.569)"
                fill="url(#paint4_linear_69_1267)" />
            <g clip-path="url(#clip7_69_1267)">
                <rect x="228.123" y="315.262" width="274.177" height="0.838462" rx="0.419231"
                    fill="black" />
                <g clip-path="url(#clip8_69_1267)">
                    <path
                        d="M256.1 332.737C255.743 332.38 255.319 332.096 254.853 331.903C254.386 331.71 253.887 331.61 253.382 331.61C252.877 331.61 252.377 331.71 251.911 331.903C251.444 332.096 251.021 332.38 250.664 332.737L249.923 333.477L249.182 332.737C248.462 332.016 247.484 331.611 246.464 331.611C245.445 331.611 244.467 332.016 243.746 332.737C243.026 333.457 242.621 334.435 242.621 335.455C242.621 336.474 243.026 337.452 243.746 338.173L244.487 338.913L249.923 344.349L255.359 338.913L256.1 338.173C256.457 337.816 256.74 337.392 256.933 336.926C257.127 336.459 257.226 335.959 257.226 335.455C257.226 334.95 257.127 334.45 256.933 333.984C256.74 333.517 256.457 333.093 256.1 332.737V332.737Z"
                        stroke="white" stroke-width="1.25769" stroke-linecap="round"
                        stroke-linejoin="round" />
                </g>
                <path
                    d="M286.396 339.996C286.396 340.367 286.249 340.722 285.987 340.984C285.725 341.246 285.369 341.394 284.999 341.394H276.614L273.819 344.188V333.009C273.819 332.638 273.967 332.283 274.229 332.021C274.491 331.759 274.846 331.612 275.217 331.612H284.999C285.369 331.612 285.725 331.759 285.987 332.021C286.249 332.283 286.396 332.638 286.396 333.009V339.996Z"
                    stroke="white" stroke-width="1.25769" stroke-linecap="round"
                    stroke-linejoin="round" />
            </g>
            <rect x="228.542" y="154.696" width="273.338" height="204.585" rx="9.64231"
                stroke="white" stroke-width="0.838462" />
            <rect width="314.423" height="57.0154" transform="translate(208 366.408)"
                fill="url(#paint5_linear_69_1267)" />
            <rect x="228.123" y="386.531" width="174.4" height="1.67692" fill="white" />
            <rect x="228.123" y="401.623" width="102.292" height="1.67692" fill="white" />
            <path
                d="M259.085 44.6653C256.013 44.6653 253.944 42.7008 253.944 40.2556H256.472C256.493 41.3841 257.559 42.4082 259.147 42.4082C260.61 42.4082 261.551 41.5095 261.551 40.381C261.551 39.3778 260.694 38.7926 259.482 38.4582L257.685 37.9567C254.591 37.1625 254.048 35.3025 254.048 34.0485C254.048 31.4988 256.284 29.7642 258.938 29.7642C261.572 29.7642 263.641 31.3943 263.641 34.0903H261.112C261.112 32.8991 260.213 32.0422 258.876 32.0422C257.643 32.0422 256.619 32.8782 256.619 34.0067C256.619 34.4038 256.744 35.2398 258.395 35.6787L260.109 36.1802C262.366 36.8072 264.101 37.9776 264.101 40.2765C264.101 42.9098 261.906 44.6653 259.085 44.6653Z"
                fill="white" />
            <path
                d="M268.936 34.6546H271.005V36.5773H268.936V44.4145H266.511V36.5773H264.756V34.6546H266.511V31.0599H268.936V34.6546Z"
                fill="white" />
            <path
                d="M277.456 34.4038C278.042 34.4038 278.669 34.5292 279.045 34.7382L278.564 37.0371C278 36.7445 277.498 36.6818 277.143 36.6818C275.555 36.6818 274.677 38.2702 274.677 41.008V44.4145H272.232V34.6546H274.656V36.7445C275.178 35.1144 276.244 34.4038 277.456 34.4038Z"
                fill="white" />
            <path
                d="M286.847 39.8794V34.6546H289.271V44.4145H286.847V42.8889C286.345 44.1219 284.799 44.6653 283.817 44.6653C281.309 44.6653 279.908 42.9725 279.908 40.1302V34.6546H282.333V40.0257C282.333 41.5931 283.273 42.4082 284.36 42.4082C285.468 42.4082 286.847 41.7812 286.847 39.8794Z"
                fill="white" />
            <path
                d="M296.211 44.6653C293.39 44.6653 290.903 42.6172 290.903 39.5241C290.903 36.431 293.39 34.4038 296.211 34.4038C297.904 34.4038 299.284 35.1562 300.182 36.2847L298.469 37.6432C297.967 37.0371 297.131 36.6609 296.253 36.6609C294.56 36.6609 293.348 37.8731 293.348 39.5241C293.348 41.1542 294.56 42.4082 296.253 42.4082C297.131 42.4082 297.967 42.032 298.469 41.4259L300.182 42.7844C299.284 43.9129 297.904 44.6653 296.211 44.6653Z"
                fill="white" />
            <path
                d="M304.94 34.6546H307.009V36.5773H304.94V44.4145H302.516V36.5773H300.761V34.6546H302.516V31.0599H304.94V34.6546Z"
                fill="white" />
            <path
                d="M313.691 34.4038C316.429 34.4038 318.644 36.5564 318.644 39.5241C318.644 42.4918 316.429 44.6653 313.691 44.6653C312.061 44.6653 310.514 43.8293 309.804 42.4918V44.4145H308.466V29.3462H309.804V36.5564C310.535 35.2189 312.04 34.4038 313.691 34.4038ZM313.586 43.3905C315.656 43.3905 317.327 41.6767 317.327 39.5032C317.327 37.3506 315.656 35.6787 313.586 35.6787C311.643 35.6787 309.804 37.2043 309.804 39.5659C309.804 41.823 311.559 43.3905 313.586 43.3905Z"
                fill="white" />
            <path
                d="M325.128 44.6653C322.348 44.6653 320.028 42.6172 320.028 39.5241C320.028 36.431 322.348 34.4038 325.128 34.4038C327.907 34.4038 330.248 36.431 330.248 39.5241C330.248 42.6172 327.907 44.6653 325.128 44.6653ZM325.128 43.3905C327.176 43.3905 328.911 41.823 328.911 39.5241C328.911 37.2252 327.176 35.6787 325.128 35.6787C323.059 35.6787 321.366 37.2252 321.366 39.5241C321.366 41.823 323.059 43.3905 325.128 43.3905Z"
                fill="white" />
            <path
                d="M336.706 44.6653C333.926 44.6653 331.606 42.6172 331.606 39.5241C331.606 36.431 333.926 34.4038 336.706 34.4038C339.485 34.4038 341.826 36.431 341.826 39.5241C341.826 42.6172 339.485 44.6653 336.706 44.6653ZM336.706 43.3905C338.754 43.3905 340.488 41.823 340.488 39.5241C340.488 37.2252 338.754 35.6787 336.706 35.6787C334.637 35.6787 332.944 37.2252 332.944 39.5241C332.944 41.823 334.637 43.3905 336.706 43.3905Z"
                fill="white" />
            <path
                d="M346.611 44.6653C344.919 44.6653 343.226 43.6831 343.059 41.823H344.292C344.438 42.6381 345.19 43.4741 346.611 43.4741C348.012 43.4741 348.869 42.7426 348.869 41.7603C348.869 40.9662 348.325 40.4437 347.322 40.1929L345.922 39.8585C344.542 39.5241 343.435 38.8135 343.435 37.1834C343.435 35.5951 344.793 34.4038 346.653 34.4038C348.283 34.4038 349.788 35.3025 349.851 37.058H348.555C348.492 36.1802 347.636 35.5951 346.674 35.5951C345.546 35.5951 344.772 36.2847 344.772 37.2043C344.772 38.1239 345.567 38.5209 346.277 38.6881L347.719 39.0434C349.621 39.5032 350.206 40.6527 350.206 41.7812C350.206 43.5159 348.639 44.6653 346.611 44.6653Z"
                fill="white" />
            <path
                d="M354.171 34.6546H356.407V35.804H354.171V44.4145H352.854V35.804H351.078V34.6546H352.854V30.9972H354.171V34.6546Z"
                fill="white" />
            <path
                d="M245.078 30.3679H236.116C235.75 30.3679 235.672 30.3943 235.463 30.605L228.358 37.2428C228.149 37.4535 228.123 37.5326 228.123 37.9014V41.8001C228.123 44.0123 229.22 45.1187 231.414 45.1187H240.376C240.741 45.1187 240.819 45.0923 241.028 44.8816L248.134 38.2438C248.343 38.0331 248.369 37.954 248.369 37.5852V33.6871C248.369 31.4743 247.272 30.3679 245.078 30.3679Z"
                fill="#F67ACB" />
            <g clip-path="url(#clip9_69_1267)">
                <path
                    d="M371.522 225.021L360.267 240.159L368.819 251.638L364.019 255.297L350.447 237.165L332.406 261.342H398.611L371.522 225.021Z"
                    fill="#F67ACB" />
            </g>
        </g>
        <path
            d="M207.162 33.5385C207.162 14.5526 222.553 -0.838462 241.538 -0.838462H488.885C507.87 -0.838462 523.262 14.5526 523.262 33.5385H521.585C521.585 15.4787 506.944 0.838462 488.885 0.838462H241.538C223.479 0.838462 208.838 15.4787 208.838 33.5385H207.162ZM522.423 545H208H522.423ZM241.538 545C222.553 545 207.162 529.609 207.162 510.623V33.5385C207.162 14.5526 222.553 -0.838462 241.538 -0.838462V0.838462C223.479 0.838462 208.838 15.4787 208.838 33.5385V511.462C208.838 529.984 223.479 545 241.538 545ZM488.885 -0.838462C507.87 -0.838462 523.262 14.5526 523.262 33.5385V510.623C523.262 529.609 507.87 545 488.885 545C506.944 545 521.585 529.984 521.585 511.462V33.5385C521.585 15.4787 506.944 0.838462 488.885 0.838462V-0.838462Z"
            fill="white" mask="url(#path-17-inside-2_69_1267)" />
    </g>
    <defs>
        <linearGradient id="paint0_linear_69_1267" x1="-101.625" y1="-85.2069" x2="1179.16"
            y2="-122.238" gradientUnits="userSpaceOnUse">
            <stop stop-color="#000205" />
            <stop offset="1" stop-color="#000205" />
        </linearGradient>
        <linearGradient id="paint1_linear_69_1267" x1="167.169" y1="-191.032" x2="574.06"
            y2="-194.281" gradientUnits="userSpaceOnUse">
            <stop stop-color="#000205" />
            <stop offset="1" stop-color="#000205" />
        </linearGradient>
        <linearGradient id="paint2_linear_69_1267" x1="-40.8313" y1="-25.8628" x2="364.676"
            y2="-49.7809" gradientUnits="userSpaceOnUse">
            <stop stop-color="#050003" />
            <stop offset="1" stop-color="#060004" />
        </linearGradient>
        <linearGradient id="paint3_linear_69_1267" x1="-40.8313" y1="-76.7066" x2="365.925"
            y2="-84.7958" gradientUnits="userSpaceOnUse">
            <stop stop-color="#000205" />
            <stop offset="1" stop-color="#000205" />
        </linearGradient>
        <linearGradient id="paint4_linear_69_1267" x1="-40.8313" y1="-76.7066" x2="365.925"
            y2="-84.7958" gradientUnits="userSpaceOnUse">
            <stop stop-color="#000205" />
            <stop offset="1" stop-color="#000205" />
        </linearGradient>
        <linearGradient id="paint5_linear_69_1267" x1="-40.8313" y1="-19.9849" x2="363.729"
            y2="-50.8656" gradientUnits="userSpaceOnUse">
            <stop stop-color="#000205" />
            <stop offset="1" stop-color="#000205" />
        </linearGradient>
        <clipPath id="clip0_69_1267">
            <rect width="390" height="460" fill="white" />
        </clipPath>
        <clipPath id="clip1_69_1267">
            <path
                d="M27 108.947C27 93.5124 39.5125 81 54.9473 81H989.535C1004.97 81 1017.48 93.5125 1017.48 108.947V555.176H27V108.947Z"
                fill="white" />
        </clipPath>
        <clipPath id="clip2_69_1267">
            <path
                d="M208 33.5385C208 15.0157 223.016 0 241.538 0H488.885C507.407 0 522.423 15.0157 522.423 33.5385V511.462C522.423 529.984 507.407 545 488.885 545H241.538C223.016 545 208 529.984 208 511.462V33.5385Z"
                fill="white" />
        </clipPath>
        <clipPath id="clip3_69_1267">
            <rect x="228.123" y="430.131" width="274.177" height="205.423" rx="10.0615" fill="white" />
        </clipPath>
        <clipPath id="clip4_69_1267">
            <rect width="26.8308" height="14.6653" fill="white"
                transform="translate(245.145 96.6762)" />
        </clipPath>
        <clipPath id="clip5_69_1267">
            <rect width="26.8308" height="14.6653" fill="white"
                transform="translate(316.415 96.6761)" />
        </clipPath>
        <clipPath id="clip6_69_1267">
            <rect width="26.8308" height="14.6653" fill="white"
                transform="translate(387.684 96.6761)" />
        </clipPath>
        <clipPath id="clip7_69_1267">
            <rect x="228.123" y="154.277" width="274.177" height="205.423" rx="10.0615" fill="white" />
        </clipPath>
        <clipPath id="clip8_69_1267">
            <rect width="16.7692" height="16.7692" fill="white"
                transform="translate(241.539 329.515)" />
        </clipPath>
        <clipPath id="clip9_69_1267">
            <rect width="66.45" height="36.3205" fill="white" transform="translate(332.406 225.021)" />
        </clipPath>
    </defs>
</svg>
    